HIERARCHY
ROOT root
{
	OFFSET 0.000000 0.000000 0.000000
	CHANNELS 6 Xposition Yposition Zposition Zrotation Yrotation Xrotation
	JOINT lhip
	{
		OFFSET 0.058581 -0.082280 -0.017664
		CHANNELS 3 Zrotation Yrotation Xrotation
		JOINT lknee
		{
			OFFSET 0.043451 -0.386469 0.008037
			CHANNELS 3 Zrotation Yrotation Xrotation
			JOINT lankle
			{
				OFFSET -0.014790 -0.426874 -0.037428
				CHANNELS 3 Zrotation Yrotation Xrotation
				JOINT ltoe
				{
					OFFSET 0.041054 -0.060286 0.122042
					CHANNELS 3 Zrotation Yrotation Xrotation
					End Site
					{
						OFFSET 0.000000 0.000000 0.000000
					}
				}
			}
		}
	}
	JOINT rhip
	{
		OFFSET -0.060310 -0.090513 -0.013543
		CHANNELS 3 Zrotation Yrotation Xrotation
		JOINT rknee
		{
			OFFSET -0.043257 -0.383688 -0.004843
			CHANNELS 3 Zrotation Yrotation Xrotation
			JOINT rankle
			{
				OFFSET 0.019056 -0.420046 -0.034562
				CHANNELS 3 Zrotation Yrotation Xrotation
				JOINT rtoe
				{
					OFFSET -0.034840 -0.062106 0.130323
					CHANNELS 3 Zrotation Yrotation Xrotation
					End Site
					{
						OFFSET 0.000000 0.000000 0.000000
					}
				}
			}
		}
	}
	JOINT lowerback
	{
		OFFSET 0.004439 0.124404 -0.038385
		CHANNELS 3 Zrotation Yrotation Xrotation
		JOINT upperback
		{
			OFFSET 0.004488 0.137956 0.026820
			CHANNELS 3 Zrotation Yrotation Xrotation
			JOINT chest
			{
				OFFSET -0.002265 0.056032 0.002855
				CHANNELS 3 Zrotation Yrotation Xrotation
				JOINT lowerneck
				{
					OFFSET -0.013390 0.211636 -0.033468
					CHANNELS 3 Zrotation Yrotation Xrotation
					JOINT upperneck
					{
						OFFSET 0.010113 0.088937 0.050410
						CHANNELS 3 Zrotation Yrotation Xrotation
						End Site
						{
							OFFSET 0.000000 0.000000 0.000000
						}
					}
				}
				JOINT lclavicle
				{
					OFFSET 0.071702 0.114000 -0.018898
					CHANNELS 3 Zrotation Yrotation Xrotation
					JOINT lshoulder
					{
						OFFSET 0.122921 0.045205 -0.019046
						CHANNELS 3 Zrotation Yrotation Xrotation
						JOINT lelbow
						{
							OFFSET 0.255332 -0.015649 -0.022946
							CHANNELS 3 Zrotation Yrotation Xrotation
							JOINT lwrist
							{
								OFFSET 0.265709 0.012698 -0.007375
								CHANNELS 3 Zrotation Yrotation Xrotation
								End Site
								{
									OFFSET 0.000000 0.000000 0.000000
								}
							}
						}
					}
				}
				JOINT rclavicle
				{
					OFFSET -0.082954 0.112472 -0.023707
					CHANNELS 3 Zrotation Yrotation Xrotation
					JOINT rshoulder
					{
						OFFSET -0.113228 0.046853 -0.008472
						CHANNELS 3 Zrotation Yrotation Xrotation
						JOINT relbow
						{
							OFFSET -0.260127 -0.014369 -0.031269
							CHANNELS 3 Zrotation Yrotation Xrotation
							JOINT rwrist
							{
								OFFSET -0.269108 0.006794 -0.006027
								CHANNELS 3 Zrotation Yrotation Xrotation
								End Site
								{
									OFFSET 0.000000 0.000000 0.000000
								}
							}
						}
					}
				}
			}
		}
	}
}
MOTION
Frames: 17
Frame Time: 0.033333
-0.042685 0.048091 0.997952 94.601348 0.212771 80.254073 0.456095 -2.451037 -2.500177 -5.771544 -7.031874 36.734545 -2.511909 8.134303 -11.051370 0.000000 -0.000000 0.000000 3.237328 -4.274320 7.207760 0.562678 -2.805870 16.045158 -0.752705 -6.872458 -17.997413 0.000000 -0.000000 0.000000 2.845234 1.222286 15.341638 1.025900 -2.114649 2.217949 -0.842734 -0.062102 2.171257 -3.764794 7.045270 16.090028 -2.973725 5.817403 17.526345 -26.115099 2.444389 4.635052 -60.593125 -6.318333 8.696126 15.200641 -37.164237 0.877235 2.083564 -4.162364 -15.951299 25.777765 2.077354 6.178943 59.473049 4.389986 10.491409 -15.933200 24.190397 -4.327305 2.724809 5.334186 -9.797553 
-0.039285 0.045016 0.997006 94.869951 0.037815 79.871147 1.086674 -4.098180 -7.031916 -7.674556 -5.533517 44.301838 -3.591055 6.962390 -5.451253 0.000000 -0.000000 0.000000 3.085447 -4.719266 7.845992 0.665936 -2.862692 16.051823 -1.851120 -6.779185 -18.212338 0.000000 -0.000000 0.000000 2.875881 2.036192 16.041572 1.362328 -2.405601 2.635075 -0.837135 -0.004576 2.185925 -3.562469 7.108633 15.360403 -3.212509 5.257700 17.416895 -26.439650 2.311522 4.254079 -60.260375 -5.776834 9.336936 15.647489 -37.478483 1.523735 1.452406 -4.008774 -16.747935 25.764629 2.369066 5.947930 59.247966 4.809434 10.141780 -16.079411 21.592443 -4.528986 2.855784 4.501649 -11.138707 
-0.033901 0.042410 0.996622 94.404025 -0.348288 79.106964 1.557980 -4.554211 -9.930632 -9.455867 -4.401611 48.766085 -3.809399 6.759620 -5.322756 0.000000 -0.000000 0.000000 2.533758 -5.162413 9.099797 0.864417 -2.395852 15.861947 -1.876728 -6.402516 -18.353770 0.000000 -0.000000 0.000000 2.809763 2.915157 16.971378 1.355079 -2.268734 2.846878 -0.866190 0.323085 2.585313 -3.383670 6.872856 14.869194 -3.025486 4.778178 17.725902 -26.589511 2.280428 3.783541 -60.074349 -5.629254 9.446921 15.318989 -37.097801 1.569277 2.268838 -3.919884 -16.890017 26.088396 2.813119 5.917427 58.509802 5.468992 9.589433 -15.335335 18.919873 -5.206573 2.550346 4.463030 -11.607532 
-0.025692 0.039725 0.997179 93.416133 -0.845305 78.646164 2.319121 -3.972850 -12.695431 -9.649696 -1.935220 49.402372 -3.140330 6.088941 -8.256743 0.000000 -0.000000 0.000000 1.869260 -5.673320 10.423074 1.003766 -1.325451 15.285476 -1.298393 -5.948663 -18.296180 0.000000 -0.000000 0.000000 2.607260 4.048403 17.764667 1.260891 -1.818327 2.981361 -0.646501 0.801460 2.838141 -3.299139 6.296314 14.888632 -2.995290 4.645518 17.552379 -27.106907 2.457687 3.479801 -60.038055 -5.277362 8.988832 15.075964 -35.634791 1.637538 2.689417 -3.683766 -16.158801 26.426490 3.230087 6.347184 57.495008 6.090347 8.918357 -14.598386 16.654099 -5.453362 2.116420 4.030778 -10.358514 
-0.020098 0.038802 0.997670 93.049125 -1.187827 78.905149 2.616425 -3.667894 -14.259758 -8.964772 -0.279442 47.389749 -2.269610 6.583505 -8.354616 0.000000 -0.000000 0.000000 1.423657 -5.830627 10.797823 1.094247 -0.999044 14.668186 -1.282712 -5.705978 -18.241479 0.000000 -0.000000 0.000000 2.396108 4.553627 17.606799 1.161831 -1.695424 2.946748 -0.580363 1.003694 3.000481 -3.353557 6.205397 15.175000 -2.664180 4.850722 17.334977 -27.264729 2.793277 3.592713 -60.253662 -5.024314 8.886842 15.025614 -34.686828 1.375518 2.570252 -3.538760 -16.626725 26.679917 2.995704 6.484192 57.147646 6.321841 8.851322 -14.642221 16.223819 -5.386172 2.572546 3.993381 -9.595438 
-0.012218 0.038369 0.998243 92.606771 -1.735209 79.247709 2.710244 -3.385483 -15.571723 -7.949715 1.792861 42.858914 -1.952197 7.889419 -8.130075 0.000000 -0.000000 0.000000 0.788724 -5.921871 11.275059 1.145004 -0.450538 13.988960 -1.055378 -5.569759 -18.237866 0.000000 -0.000000 0.000000 2.342441 4.903359 17.741233 0.746514 -1.635143 2.588008 -0.699662 1.200809 3.092810 -3.602388 6.145231 15.357303 -2.353980 5.077201 17.219340 -27.003407 3.306349 3.598996 -60.846357 -4.336370 8.940250 14.110345 -32.749861 1.098171 4.391880 -3.110659 -17.825538 26.308132 2.772144 6.460383 57.356000 6.472893 9.290099 -13.832069 15.852057 -5.076000 1.145639 4.005259 -9.231162 
-0.003702 0.038679 0.998029 92.682363 -1.964679 79.767050 2.703435 -3.263113 -16.459360 -6.457799 3.656067 36.379245 -0.908348 8.912138 -7.663299 0.000000 -0.000000 0.000000 0.596309 -5.879668 11.529662 1.051192 -0.229328 13.497902 -1.023075 -5.578967 -18.352452 0.000000 -0.000000 0.000000 2.508345 5.053787 17.635229 0.467862 -1.729386 2.402920 -0.846492 1.121722 3.212373 -3.723936 6.346641 15.163679 -2.034501 5.239405 17.185083 -27.096140 3.630986 3.705918 -61.040222 -3.740448 8.847842 13.324321 -30.627758 1.111063 4.619222 -3.244339 -17.636276 26.199563 2.392816 6.501978 57.598397 6.538181 9.644512 -13.918921 16.735034 -5.308468 0.790924 4.352659 -8.827664 
0.006608 0.039799 0.997437 92.847742 -2.323848 80.116657 1.998506 -3.279775 -16.185212 -5.221626 4.071463 28.254359 -1.519817 10.376004 -6.727515 0.000000 -0.000000 0.000000 0.110632 -5.928036 12.133898 1.113380 -0.184194 13.027555 -0.774715 -5.574263 -18.929417 0.000000 -0.000000 0.000000 2.574052 5.081576 17.625398 0.093581 -1.979187 2.288676 -0.936709 1.033593 3.290998 -3.852141 6.831028 14.903402 -1.849654 5.175772 17.025644 -27.411687 3.760577 3.380544 -61.022276 -2.822702 8.817851 12.417805 -28.189674 1.487862 4.337727 -3.346718 -16.348101 26.169857 1.955456 6.471057 57.431573 6.458272 9.867155 -13.329884 18.251612 -5.111111 0.391153 4.606312 -9.231006 
0.017402 0.041219 0.995700 92.695717 -2.375570 80.696736 1.663186 -3.127530 -15.755934 -4.181101 3.928723 19.516506 -1.272623 10.457656 -6.012608 0.000000 -0.000000 0.000000 -0.031153 -5.853571 12.338949 1.168876 -0.042356 13.049719 -0.583639 -5.653538 -19.221195 0.000000 -0.000000 0.000000 2.775129 5.071009 17.153826 -0.140281 -1.889520 2.562663 -1.005730 1.043011 3.234535 -3.809222 6.934489 14.779679 -2.274673 4.897531 16.942772 -27.691135 3.919108 3.308205 -61.235075 -2.161302 8.881588 11.892940 -25.599557 2.577020 2.371646 -3.628197 -14.539313 26.057192 1.881359 6.551110 57.461130 6.235520 10.242329 -13.405087 19.697428 -5.138477 0.943254 5.149451 -9.599754 
0.033414 0.043697 0.991852 92.493054 -2.118391 81.238414 1.367491 -2.644219 -14.613915 -3.019869 2.198558 8.998416 -1.843133 10.177530 -5.687740 0.000000 -0.000000 0.000000 0.167077 -5.493060 13.046222 1.352466 0.379757 13.016434 -0.511578 -6.193054 -20.005933 0.000000 -0.000000 0.000000 3.068637 5.037323 16.699812 -0.275204 -1.780471 2.607325 -0.918292 1.068269 3.201879 -3.580304 7.303636 14.547087 -2.433328 4.617990 17.633206 -27.686240 3.937964 3.493731 -62.274732 -1.270258 9.077006 11.555114 -23.111581 3.939881 1.475215 -2.986046 -12.397049 25.896103 1.890728 6.589687 57.401167 5.907741 10.557129 -13.323571 21.312667 -4.750160 0.724578 5.886072 -10.079790 
0.047542 0.046402 0.987935 92.244361 -1.809104 81.888119 1.025229 -1.211712 -14.457227 -1.931590 0.124522 2.812675 -1.400787 8.552825 -5.219145 0.000000 -0.000000 0.000000 -0.132538 -6.312616 13.057066 1.747592 0.934967 13.739464 0.263564 -5.518071 -20.538511 0.000000 -0.000000 0.000000 3.092404 4.542629 16.081947 -0.174865 -1.114675 1.743338 -1.003816 0.820916 4.192480 -2.402348 7.571293 14.826956 -4.311173 4.284841 17.077021 -28.149654 6.234614 3.393280 -62.099134 -2.332419 8.106954 10.590268 -21.629497 5.328770 -4.940632 -2.033576 -8.853857 26.126172 0.687260 6.327052 56.597460 7.539609 12.072276 -12.703498 21.543064 -6.329297 3.502470 4.341877 -8.642382 
0.063239 0.048841 0.983729 91.609374 -1.625373 82.236121 1.051331 -0.277310 -14.087391 -1.644374 -0.185836 -0.950345 -2.232264 7.713990 -5.872114 0.000000 -0.000000 0.000000 -0.202913 -6.370183 13.660681 1.684925 1.734034 13.795918 0.620518 -5.364761 -21.259319 0.000000 -0.000000 0.000000 3.027276 4.739762 15.785334 -0.170805 -0.808480 1.714618 -0.919933 0.945836 4.151003 -2.010623 7.927368 14.723506 -4.523312 4.148200 17.465573 -28.297360 6.764025 3.174331 -62.283166 -1.698160 8.133268 9.875679 -20.711217 6.154227 -5.569076 -1.806766 -8.107653 26.431368 0.584932 6.138858 56.284378 8.073425 12.107547 -12.337196 21.278290 -6.233872 3.669648 4.520770 -8.182155 
0.080511 0.052467 0.979660 91.390200 -1.402287 82.497276 1.115009 -0.027407 -14.677578 -1.934245 0.126247 0.305593 -2.477776 7.697222 -5.485377 0.000000 -0.000000 0.000000 -0.361171 -6.281721 14.470164 1.779363 2.002348 14.118920 0.592635 -5.253285 -21.864788 0.000000 -0.000000 0.000000 2.952387 4.888161 15.326977 -0.027885 -0.896530 1.830118 -0.913409 0.975303 4.165972 -1.586762 8.037615 14.678665 -4.775963 4.192492 17.915752 -28.427924 7.024589 3.399473 -62.596992 -1.308577 8.238586 9.591679 -20.352926 6.819551 -5.894274 -2.047028 -7.871811 26.690089 0.645596 6.101887 56.134843 8.774884 12.008119 -12.178706 20.651377 -6.360422 3.543697 4.491251 -8.245236 
0.099319 0.056912 0.976249 91.063929 -1.287809 82.489801 1.168265 -0.574497 -14.772301 -2.201985 -0.290782 3.093774 -2.105613 7.794682 -5.222942 0.000000 -0.000000 0.000000 -0.787185 -6.436696 15.605921 1.788750 2.397764 14.610333 0.736531 -4.971641 -22.074601 0.000000 -0.000000 0.000000 2.958649 5.229886 15.060334 0.016560 -1.015951 2.099250 -1.044481 1.042532 4.196268 -1.326037 7.941756 14.587636 -4.844412 4.100803 17.892329 -28.431644 7.267104 3.458640 -62.867803 -1.012142 8.401753 9.429054 -20.589315 7.578598 -6.405692 -1.933277 -7.884350 26.893449 0.743152 5.758360 56.498184 9.246379 11.876741 -12.412832 19.966220 -6.675323 3.743507 4.140175 -8.429861 
0.119945 0.062396 0.974160 90.300512 -1.418840 82.772916 0.899472 -0.895840 -14.304666 -2.051995 0.074921 3.186969 -0.708925 7.920617 -2.823664 0.000000 -0.000000 0.000000 -1.449323 -6.112245 16.432053 1.585153 3.057500 14.855647 1.185207 -4.601882 -21.714476 0.000000 -0.000000 0.000000 2.780251 5.708430 14.434632 0.049054 -0.730916 2.326186 -1.278086 1.240291 3.963882 -0.927833 7.680010 14.845317 -4.913851 4.056203 18.150849 -28.559319 7.568432 3.624091 -62.648581 -0.920911 8.697517 9.199455 -20.964674 7.942832 -6.733826 -2.109716 -7.661912 27.454933 0.724757 5.899502 56.445703 9.766072 11.846218 -12.829965 19.108797 -7.745567 3.839145 3.955010 -8.241637 
0.141553 0.068373 0.975216 89.729188 -1.417588 83.179837 0.523890 -0.550613 -13.939440 -1.845984 0.218376 3.258657 -0.686245 8.567185 1.535460 0.000000 -0.000000 0.000000 -1.882250 -6.052139 16.911106 1.006368 3.240156 15.404726 1.688478 -4.002828 -20.380470 0.000000 -0.000000 0.000000 2.908710 5.891282 13.808923 -0.091037 -0.443992 2.405594 -1.565957 1.483994 3.806057 -1.028285 7.513269 15.208496 -4.994142 4.094906 18.277341 -28.733125 8.233077 3.099504 -62.256748 -0.927776 8.796845 9.090331 -21.184380 7.922648 -7.012647 -2.205098 -7.497483 27.780373 0.631118 5.791396 56.570653 10.207292 12.004570 -12.648873 18.088874 -8.232000 3.825884 3.775077 -7.916673 
0.164447 0.074880 0.979206 89.466478 -1.566492 83.440698 0.043691 -0.666529 -13.177735 -1.677733 1.960067 4.128473 0.148561 9.095164 3.481685 0.000000 -0.000000 0.000000 -2.568929 -5.648810 17.165069 0.838069 2.731946 16.648955 2.567416 -3.365512 -18.093297 0.000000 -0.000000 0.000000 2.786164 6.047873 13.227629 -0.171101 -0.159368 2.355683 -1.732694 1.636681 3.472333 -1.295023 7.212661 16.049586 -4.885633 4.584906 18.059260 -28.548353 8.493211 3.295331 -62.369906 -1.104858 8.674694 9.695107 -21.968334 7.156033 -7.431751 -1.706379 -7.819806 27.851874 0.304712 6.002467 57.062769 10.298919 12.085693 -12.787809 17.889290 -8.829957 4.161218 3.541694 -8.039230 
